#!OML:ASF I:\Actors\actors\Patient Classification 2\Patient 1\Session 1\actor1.ASF
:FULLY-SPECIFIED
:DEGREES
214
root -1.17478 17.8234 5.64581 -2.43261 0.29926 -4.67985
lowerback 18.609 1.0576 4.09794
upperback -1.20043 2.38986 0.535649
thorax -11.6821 0.881753 -2.41281
lowerneck -29.3471 -4.08527 -1.36024
upperneck 13.6662 -5.75351 3.74825
head 9.15578 -2.29593 0.623621
rclavicle -3.66882e-014 -2.5842e-015
rhumerus -44.7156 -21.3693 -40.3931
rradius 148.621
rwrist 22.4927
rhand -54.6939 -49.3865
rfingers 7.12502
rthumb -27.0873 -77.4634
lclavicle -3.66882e-014 -2.5842e-015
lhumerus -28.7593 8.14266 48.2407
lradius 143.089
lwrist -17.2044
lhand -28.9894 -64.7312
lfingers 7.12502
lthumb -2.34147 -34.7644
rfemur 24.116 -3.52623 20.6811
rtibia -25.1209
rfoot -3.62233 -17.6473
rtoes -0.978747
lfemur 25.35 1.75718 -10.9341
ltibia -32.3217
lfoot 9.33354 13.0307
ltoes -17.8165
215
root -1.16947 17.7787 5.59502 -2.13184 0.40916 -4.44609
lowerback 19.04 1.05274 3.91973
upperback -1.04704 2.36362 0.576984
thorax -11.766 0.880945 -2.27032
lowerneck -29.4849 -4.06244 -1.40707
upperneck 12.8265 -5.59749 3.44594
head 8.8657 -2.27541 0.555581
rclavicle 8.4235e-015 -8.54774e-015
rhumerus -42.7673 -23.7095 -42.6169
rradius 148.435
rwrist 23.1503
rhand -55.42 -50.9646
rfingers 7.12502
rthumb -27.7818 -78.9314
lclavicle 8.4235e-015 -8.54774e-015
lhumerus -27.2146 9.25047 50.6486
lradius 143.202
lwrist -18.5582
lhand -29.034 -65.7631
lfingers 7.12502
lthumb -2.38451 -35.7967
rfemur 24.5728 -3.80216 20.3777
rtibia -27.018
rfoot -2.29416 -18.0736
rtoes -2.07242
lfemur 25.3855 2.1728 -11.2175
ltibia -33.5429
lfoot 10.2322 12.7089
ltoes -18.8936
216
root -1.16477 17.7321 5.54407 -1.82661 0.659116 -4.18477
lowerback 19.4627 0.991764 3.73608
upperback -0.985141 2.25649 0.562775
thorax -11.9513 0.836881 -2.16383
lowerneck -29.5112 -3.92819 -1.20718
upperneck 12.0819 -5.38084 3.04656
head 8.58325 -2.22331 0.426134
rclavicle 2.48729e-014 0
rhumerus -40.647 -25.6247 -44.1424
rradius 148.211
rwrist 22.7512
rhand -56.0445 -51.7299
rfingers 7.12502
rthumb -28.3788 -79.5987
lclavicle 2.48729e-014 0
lhumerus -25.4638 10.2128 52.9375
lradius 143.254
lwrist -19.6875
lhand -29.0332 -66.9169
lfingers 7.12502
lthumb -2.38381 -36.9504
rfemur 25.0544 -4.16149 20.0466
rtibia -28.9156
rfoot -1.16688 -18.5728
rtoes -2.31261
lfemur 25.3329 2.54781 -11.5248
ltibia -34.6753
lfoot 11.1526 12.2835
ltoes -19.9024
217
root -1.16164 17.6849 5.49406 -1.57537 0.945648 -3.91581
lowerback 19.8576 0.937825 3.50184
upperback -0.984683 2.14264 0.522428
thorax -12.191 0.790402 -2.05447
lowerneck -29.6062 -3.78097 -1.04682
upperneck 11.6538 -5.20399 2.92797
head 8.43633 -2.15183 0.390325
rclavicle 1.21756e-014 -8.34896e-015
rhumerus -38.5942 -27.0236 -44.4347
rradius 147.965
rwrist 21.9978
rhand -56.2156 -51.6912
rfingers 7.12502
rthumb -28.5423 -79.5328
lclavicle 1.21756e-014 -8.34896e-015
lhumerus -23.7947 10.6111 54.3749
lradius 143.008
lwrist -20.1816
lhand -29.2166 -67.9255
lfingers 7.12502
lthumb -2.56094 -37.9611
rfemur 25.5598 -4.62266 19.7056
rtibia -30.717
rfoot -0.0812828 -19.0451
rtoes -2.85444
lfemur 25.2973 3.03637 -11.7965
ltibia -35.7053
lfoot 12.087 11.7326
ltoes -20.2905
218
root -1.15578 17.6428 5.44904 -1.47856 1.07308 -3.59652
lowerback 20.2735 0.924168 3.25294
upperback -0.950966 2.06917 0.427097
thorax -12.3999 0.763073 -2.00903
lowerneck -30.0413 -3.65987 -1.03141
upperneck 11.5864 -5.07969 3.12567
head 8.48241 -2.06477 0.471257
rclavicle -1.07344e-014 4.37326e-015
rhumerus -36.5066 -27.8673 -43.8921
rradius 147.518
rwrist 21.6596
rhand -56.2467 -51.2593
rfingers 7.12502
rthumb -28.572 -79.0958
lclavicle -1.07344e-014 4.37326e-015
lhumerus -22.2151 11.0635 55.077
lradius 142.615
lwrist -20.2162
lhand -29.1748 -68.469
lfingers 7.12502
lthumb -2.52051 -38.5042
rfemur 26.1108 -5.06182 19.2789
rtibia -32.3002
rfoot 1.07422 -19.3833
rtoes -3.98422
lfemur 25.432 3.62065 -12.1224
ltibia -36.6116
lfoot 12.9369 11.2291
ltoes -20.4288
219
root -1.14968 17.6082 5.41583 -1.63175 1.21172 -3.33477
lowerback 20.7593 0.862475 3.18002
upperback -0.859335 1.96697 0.277557
thorax -12.5753 0.710157 -2.11633
lowerneck -30.5227 -3.54055 -0.993296
upperneck 11.5143 -4.96301 3.30505
head 8.53212 -1.98152 0.54152
rclavicle -2.13694e-014 -8.94531e-015
rhumerus -34.3668 -28.4707 -43.0432
rradius 146.84
rwrist 22.1071
rhand -56.19 -51.5399
rfingers 7.12502
rthumb -28.5178 -79.3856
lclavicle -2.13694e-014 -8.94531e-015
lhumerus -20.6302 11.6804 54.6673
lradius 141.872
lwrist -19.9471
lhand -28.952 -68.3496
lfingers 7.12502
lthumb -2.30535 -38.3823
rfemur 26.8183 -5.45424 18.9097
rtibia -33.5716
rfoot 2.0528 -19.6138
rtoes -4.98758
lfemur 25.7954 4.10559 -12.3689
ltibia -37.3453
lfoot 13.5626 10.8117
ltoes -20.3792
220
root -1.14767 17.5806 5.39931 -1.91948 1.40778 -3.18052
lowerback 21.1225 0.737602 3.22586
upperback -0.771652 1.80457 0.121539
thorax -12.6846 0.623188 -2.27609
lowerneck -30.7579 -3.38936 -0.832196
upperneck 11.3352 -4.81608 3.3053
head 8.49763 -1.90452 0.538745
rclavicle 1.20265e-014 6.16232e-015
rhumerus -32.3823 -29.0101 -42.0784
rradius 146.08
rwrist 22.379
rhand -55.9881 -52.7779
rfingers 7.12502
rthumb -28.3248 -80.6558
lclavicle 1.20265e-014 6.16232e-015
lhumerus -19.2755 12.4125 53.2476
lradius 140.868
lwrist -19.5535
lhand -29.0238 -67.7639
lfingers 7.12502
lthumb -2.37465 -37.7973
rfemur 27.5719 -5.7768 18.6851
rtibia -34.4875
rfoot 2.7632 -19.7058
rtoes -6.13919
lfemur 26.2542 4.52592 -12.4622
ltibia -37.8796
lfoot 13.9629 10.368
ltoes -20.4397
221
root -1.15084 17.5603 5.39652 -2.22665 1.56267 -3.05166
lowerback 21.346 0.585644 3.1811
upperback -0.756983 1.58263 -0.0140608
thorax -12.8059 0.51497 -2.33914
lowerneck -30.8652 -3.22052 -0.79915
upperneck 11.2936 -4.61827 3.38926
head 8.49707 -1.79949 0.593165
rclavicle 1.16786e-015 3.77691e-015
rhumerus -30.6665 -29.5354 -41.2524
rradius 145.388
rwrist 21.6776
rhand -55.5321 -52.8922
rfingers 7.12502
rthumb -27.889 -80.8416
lclavicle 1.16786e-015 3.77691e-015
lhumerus -18.1263 13.5045 51.6222
lradius 139.739
lwrist -18.9236
lhand -29.2319 -67.176
lfingers 7.12502
lthumb -2.5757 -37.2118
rfemur 28.2277 -5.9695 18.5149
rtibia -35.0671
rfoot 3.18325 -19.757
rtoes -6.90057
lfemur 26.7093 4.82456 -12.5163
ltibia -38.2297
lfoot 14.2275 9.99838
ltoes -20.7986
222
root -1.15724 17.5457 5.40245 -2.56953 1.71006 -2.98712
lowerback 21.616 0.433605 3.15622
upperback -0.813336 1.37202 -0.122745
thorax -13.0366 0.408567 -2.38804
lowerneck -31.0538 -3.0964 -0.833072
upperneck 11.4514 -4.44982 3.41517
head 8.57849 -1.71408 0.631661
rclavicle -1.59028e-015 3.57812e-015
rhumerus -29.2656 -30.1448 -40.846
rradius 144.849
rwrist 20.8065
rhand -55.0614 -52.7487
rfingers 7.12502
rthumb -27.4389 -80.7703
lclavicle -1.59028e-015 3.57812e-015
lhumerus -16.925 14.9009 50.399
lradius 138.652
lwrist -17.9045
lhand -29.2722 -66.772
lfingers 7.12502
lthumb -2.61457 -36.8083
rfemur 28.8098 -6.01768 18.4331
rtibia -35.3659
rfoot 3.21924 -19.9059
rtoes -6.68581
lfemur 27.1694 4.87642 -12.5046
ltibia -38.4216
lfoot 14.3531 9.77555
ltoes -21.4167
223
root -1.1643 17.5337 5.41274 -2.97084 1.84874 -3.00423
lowerback 22.0188 0.327848 3.18101
upperback -0.93538 1.24721 -0.18735
thorax -13.4159 0.335856 -2.44602
lowerneck -31.333 -3.03585 -0.70948
upperneck 11.765 -4.36552 3.08901
head 8.71581 -1.69935 0.508026
rclavicle 1.1778e-014 -4.77083e-015
rhumerus -28.112 -30.8362 -40.7897
rradius 144.389
rwrist 20.5161
rhand -54.5773 -53.2864
rfingers 7.12502
rthumb -26.9758 -81.3805
lclavicle 1.1778e-014 -4.77083e-015
lhumerus -15.8222 16.1203 49.5284
lradius 137.78
lwrist -16.7981
lhand -29.5255 -66.5261
lfingers 7.12502
lthumb -2.85922 -36.5655
rfemur 29.3665 -5.97709 18.452
rtibia -35.4573
rfoot 3.05952 -20.0388
rtoes -6.53269
lfemur 27.6581 4.72876 -12.4105
ltibia -38.4901
lfoot 14.2735 9.71733
ltoes -21.5859
224
root -1.17081 17.5263 5.42338 -3.40999 1.96781 -3.06258
lowerback 22.5309 0.270704 3.17224
upperback -1.11156 1.19395 -0.171607
thorax -13.9216 0.298434 -2.41926
lowerneck -31.6648 -3.04979 -0.739294
upperneck 12.1636 -4.31114 2.72786
head 8.89456 -1.70972 0.389608
rclavicle -1.0461e-014 -1.74931e-014
rhumerus -27.0684 -31.3907 -40.8317
rradius 143.971
rwrist 20.5492
rhand -54.2705 -53.7299
rfingers 7.12502
rthumb -26.6822 -81.8691
lclavicle -1.0461e-014 -1.74931e-014
lhumerus -14.8526 17.1628 49.1512
lradius 137.073
lwrist -16.0458
lhand -29.8971 -66.5051
lfingers 7.12502
lthumb -3.21811 -36.5496
rfemur 29.8972 -5.96567 18.5079
rtibia -35.415
rfoot 2.86035 -20.0494
rtoes -6.6735
lfemur 28.161 4.40941 -12.2937
ltibia -38.4757
lfoot 14.0869 9.82665
ltoes -20.8901
225
root -1.17531 17.523 5.43171 -3.84109 2.096 -3.1301
lowerback 23.0619 0.216422 3.13091
upperback -1.29439 1.14306 -0.109654
thorax -14.4502 0.266766 -2.32094
lowerneck -32.037 -3.05768 -0.887774
upperneck 12.5052 -4.21453 2.47076
head 9.06501 -1.69558 0.332436
rclavicle 7.45443e-016 2.38542e-015
rhumerus -26.1062 -31.6524 -40.8789
rradius 143.598
rwrist 20.5896
rhand -54.2994 -54.003
rfingers 7.12502
rthumb -26.7099 -82.138
lclavicle 7.45443e-016 2.38542e-015
lhumerus -13.88 18.1531 49.0789
lradius 136.355
lwrist -15.6924
lhand -30.2505 -66.3929
lfingers 7.12502
lthumb -3.55932 -36.4429
rfemur 30.3733 -6.03985 18.5464
rtibia -35.2943
rfoot 2.63318 -19.9939
rtoes -6.47098
lfemur 28.6298 3.95484 -12.2112
ltibia -38.4141
lfoot 13.9447 10.0053
ltoes -20.5034
226
root -1.17981 17.5198 5.43586 -4.2136 2.19063 -3.15032
lowerback 23.5681 0.190308 3.02603
upperback -1.46313 1.10792 -0.0625566
thorax -14.9501 0.248161 -2.20638
lowerneck -32.4654 -3.06498 -1.05012
upperneck 12.7465 -4.13572 2.36514
head 9.21371 -1.67326 0.328124
rclavicle -3.97569e-016 -1.59028e-015
rhumerus -25.213 -31.7084 -40.9155
rradius 143.154
rwrist 20.6385
rhand -54.3187 -55.0654
rfingers 7.12502
rthumb -26.7283 -83.1975
lclavicle -3.97569e-016 -1.59028e-015
lhumerus -12.9246 18.9257 48.9282
lradius 135.557
lwrist -15.3989
lhand -30.6791 -66.0728
lfingers 7.12502
lthumb -3.97329 -36.1301
rfemur 30.7431 -6.16181 18.5295
rtibia -35.1227
rfoot 2.4607 -19.9124
rtoes -6.21994
lfemur 28.9999 3.59623 -12.1926
ltibia -38.3092
lfoot 13.8351 10.0847
ltoes -21.1159
227
root -1.18591 17.518 5.43778 -4.46959 2.20269 -3.19416
lowerback 23.9812 0.189931 2.96697
upperback -1.62315 1.11108 -0.0459228
thorax -15.3842 0.243629 -2.1642
lowerneck -32.9813 -3.11325 -1.24061
upperneck 12.8949 -4.13209 2.44361
head 9.34933 -1.66446 0.381311
rclavicle -5.13113e-015 -1.39149e-014
rhumerus -24.408 -31.6946 -40.8978
rradius 142.639
rwrist 20.6818
rhand -54.3095 -56.6323
rfingers 7.12502
rthumb -26.7195 -84.7658
lclavicle -5.13113e-015 -1.39149e-014
lhumerus -11.9578 19.5017 48.7142
lradius 134.722
lwrist -14.8427
lhand -30.8222 -65.9662
lfingers 7.12502
lthumb -4.11148 -36.0261
rfemur 30.9426 -6.27963 18.5653
rtibia -34.9162
rfoot 2.37437 -19.7666
rtoes -6.46383
lfemur 29.2127 3.4603 -12.1174
ltibia -38.1631
lfoot 13.7511 10.0453
ltoes -21.9087
